<svg width="15.979492" height="15.975830" viewBox="0 0 15.9795 15.9758" fill="none" xmlns="http://www.w3.org/2000/svg" xmlns:xlink="http://www.w3.org/1999/xlink">
	<desc>
			Created with Pixso.
	</desc>
	<defs/>
	<path id="Vector" d="M12.2 9.97C11.1 9.87 10.5 11.37 9.7 11.77C8.4 12.47 6 9.97 6 9.97C6 9.97 3.5 7.57 4.1 6.27C4.6 5.47 6.1 4.87 6 3.77C5.9 2.77 3.7 -0.83 2.6 0.17C0.2 2.37 0 3.27 0 5.07C-0.1 8.17 3.9 12.07 3.9 12.07C4.3 12.47 7.8 16.07 10.9 15.97C12.7 15.97 13.6 15.77 15.8 13.37C16.8 12.27 13.3 10.07 12.2 9.97Z" fill="#607CE6" fill-opacity="1.000000" fill-rule="evenodd"/>
</svg>
